<?xml version="1.0" encoding="utf-8"?>
<!-- Generator: Adobe Illustrator 22.0.1, SVG Export Plug-In . SVG Version: 6.00 Build 0)  -->
<svg version="1.1" id="Ebene_1" xmlns="http://www.w3.org/2000/svg" xmlns:xlink="http://www.w3.org/1999/xlink" x="0px" y="0px"
	 viewBox="0 0 299.9 62.5" style="enable-background:new 0 0 299.9 62.5;" xml:space="preserve">
<style type="text/css">
	.st0{display:none;fill:#FFFFFF;}
	.st1{fill:#333333;}
	.st2{fill:none;stroke:#333333;stroke-miterlimit:10;}
</style>
<rect x="-33.9" y="-32.6" class="st0" width="368" height="128"/>
<g>
	<path class="st1" d="M170.2,13.8c0.8,1.1,1.9,2,3.8,2c1.4,0,2.9-1,2.9-2.7c0-2.6-3-2.9-5.1-4.1c-1.1-0.6-1.9-1.5-1.9-2.9
		c0-2.2,1.8-3.7,4-3.7c1.8,0,3,0.9,3.6,1.4l-0.8,0.9c-0.8-0.7-1.6-1.2-2.8-1.2c-1.6,0-2.9,1-2.9,2.5c0,2.1,2.9,2.4,4.9,3.7
		c1.2,0.7,2.1,1.8,2.1,3.4c0,2.2-1.8,3.8-4.1,3.8c-1.9,0-3.5-0.8-4.7-2.4L170.2,13.8z"/>
	<path class="st1" d="M188.4,15.4c-0.9,1-2.2,1.6-3.6,1.6c-2.6,0-5-1.9-5-4.8c0-2.6,2-4.8,4.8-4.8c1.5,0,2.7,0.6,3.5,1.4l-0.7,0.8
		c-0.7-0.7-1.6-1.2-2.8-1.2c-1.9,0-3.6,1.6-3.6,3.7c0,2.1,1.6,3.7,3.8,3.7c1.1,0,2-0.4,2.8-1.3L188.4,15.4z"/>
	<path class="st1" d="M191.7,8.8c0.7-1,2-1.4,3.2-1.4c1.3,0,2.5,0.5,3.3,1.6c0.5,0.7,0.8,1.4,0.8,3v4.8h-1.2V12
		c0-1.2-0.2-1.8-0.5-2.3c-0.5-0.8-1.4-1.2-2.4-1.2c-1.3,0-2.5,0.7-3.2,1.9v6.4h-1.2V2.4h1.2L191.7,8.8L191.7,8.8z"/>
	<path class="st1" d="M204.7,16.8H204l-3.6-9.2h1.2l2.8,7.2l3-7.2h0.7l3,7.2l2.8-7.2h1.2l-3.6,9.2h-0.7l-3-7.3L204.7,16.8z"/>
	<path class="st1" d="M224.5,15.3c-0.7,0.9-2,1.7-3.8,1.7c-2.6,0-4.6-1.9-4.6-4.8c0-2.7,1.8-4.8,4.4-4.8c2.5,0,4.3,1.9,4.3,4.5
		c0,0.1,0,0.2,0,0.4h-7.5c0.1,2,1.4,3.6,3.5,3.6c1.2,0,2.2-0.5,3-1.4L224.5,15.3z M217.3,11.2h6.3c-0.2-1.6-1.5-2.8-3.1-2.8
		C218.9,8.4,217.7,9.6,217.3,11.2z"/>
	<path class="st1" d="M227.8,3.3c0.6,0,1,0.5,1,1c0,0.6-0.5,1-1,1s-1-0.4-1-1C226.8,3.8,227.2,3.3,227.8,3.3z M227.2,7.5h1.2v9.3
		h-1.2V7.5z"/>
	<path class="st1" d="M236.8,8.6h-5.6V7.5h7.4v0.7l-6.2,7.4h6.4v1.2h-8.1v-0.7L236.8,8.6z"/>
	<path class="st1" d="M248.4,15.3c-0.7,0.9-2,1.7-3.8,1.7c-2.6,0-4.6-1.9-4.6-4.8c0-2.7,1.8-4.8,4.4-4.8c2.5,0,4.3,1.9,4.3,4.5
		c0,0.1,0,0.2,0,0.4h-7.5c0.1,2,1.4,3.6,3.5,3.6c1.2,0,2.2-0.5,3-1.4L248.4,15.3z M241.2,11.2h6.3c-0.2-1.6-1.5-2.8-3.1-2.8
		C242.8,8.4,241.6,9.6,241.2,11.2z"/>
	<path class="st1" d="M255.7,8.4c-0.1,0-0.5,0-0.5,0c-1.3,0-2.4,0.8-2.9,2v6.4h-1.2V7.6h1.2v1.2c0.4-0.6,1.5-1.4,2.9-1.4
		c0.2,0,0.6,0,0.7,0L255.7,8.4z"/>
	<path class="st1" d="M258.5,3.3c0.6,0,1,0.5,1,1c0,0.6-0.5,1-1,1s-1-0.4-1-1C257.5,3.8,257.9,3.3,258.5,3.3z M257.9,7.5h1.2v9.3
		h-1.2V7.5z"/>
	<path class="st1" d="M262.1,14.8c0.8,0.7,1.8,1.1,2.8,1.1c1.2,0,2.1-0.6,2.1-1.6c0-2.4-5.3-1.1-5.3-4.2c0-1.7,1.6-2.7,3.1-2.7
		c1.3,0,2.3,0.4,3,0.9l-0.6,1c-0.8-0.5-1.4-0.7-2.3-0.7c-1,0-2,0.5-2,1.6c0,2,5.3,1,5.3,4.2c0,1.7-1.5,2.8-3.2,2.8
		c-1.5,0-2.8-0.6-3.6-1.3L262.1,14.8z"/>
	<path class="st1" d="M278.5,15.4c-0.9,1-2.2,1.6-3.6,1.6c-2.6,0-5-1.9-5-4.8c0-2.6,2-4.8,4.8-4.8c1.5,0,2.7,0.6,3.5,1.4l-0.7,0.8
		c-0.7-0.7-1.6-1.2-2.8-1.2c-1.9,0-3.6,1.6-3.6,3.7c0,2.1,1.6,3.7,3.8,3.7c1.1,0,2-0.4,2.8-1.3L278.5,15.4z"/>
	<path class="st1" d="M281.8,8.8c0.7-1,2-1.4,3.2-1.4c1.3,0,2.5,0.5,3.3,1.6c0.5,0.7,0.8,1.4,0.8,3v4.8h-1.2V12
		c0-1.2-0.2-1.8-0.5-2.3c-0.5-0.8-1.4-1.2-2.4-1.2c-1.3,0-2.5,0.7-3.2,1.9v6.4h-1.2V2.4h1.2L281.8,8.8L281.8,8.8z"/>
	<path class="st1" d="M299.6,15.3c-0.7,0.9-2,1.7-3.8,1.7c-2.6,0-4.6-1.9-4.6-4.8c0-2.7,1.8-4.8,4.4-4.8c2.5,0,4.3,1.9,4.3,4.5
		c0,0.1,0,0.2,0,0.4h-7.5c0.1,2,1.4,3.6,3.5,3.6c1.2,0,2.2-0.5,3-1.4L299.6,15.3z M292.5,11.2h6.3c-0.2-1.6-1.5-2.8-3.1-2.8
		C294,8.4,292.8,9.6,292.5,11.2z"/>
	<path class="st1" d="M170.4,23.8h1.2V38h-1.2V23.8z"/>
	<path class="st1" d="M174.7,36c0.8,0.7,1.8,1.1,2.8,1.1c1.2,0,2.1-0.6,2.1-1.6c0-2.4-5.3-1.1-5.3-4.2c0-1.7,1.6-2.7,3.1-2.7
		c1.3,0,2.3,0.4,3,0.9l-0.6,1c-0.8-0.5-1.4-0.7-2.3-0.7c-1,0-2,0.5-2,1.6c0,2,5.3,1,5.3,4.2c0,1.7-1.5,2.8-3.2,2.8
		c-1.5,0-2.8-0.6-3.6-1.3L174.7,36z"/>
	<path class="st1" d="M183.3,23.6h1.2V38h-1.2V23.6z"/>
	<path class="st1" d="M194.9,38v-1.4c-0.7,0.9-1.9,1.6-3.3,1.6c-0.9,0-1.8-0.2-2.8-0.9c-1.2-0.8-2-2.3-2-3.9c0-1.5,0.7-2.9,1.7-3.8
		c0.8-0.6,1.8-1,2.9-1c1.3,0,2.5,0.5,3.4,1.5v-1.3h1.1V38H194.9z M194.8,31.5c-0.4-0.7-1.6-1.9-3.3-1.9c-0.8,0-1.6,0.3-2.2,0.8
		c-0.8,0.7-1.3,1.7-1.3,2.9c0,1.3,0.6,2.4,1.5,3c0.6,0.4,1.3,0.7,2.1,0.7c1.4,0,2.6-0.8,3.3-2v-3.5H194.8z"/>
	<path class="st1" d="M200.3,30c0.7-0.9,1.8-1.5,3.1-1.5c1.5,0,2.8,0.8,3.5,2c0.6-0.9,1.8-2,3.6-2c1.5,0,2.8,0.8,3.5,1.9
		c0.3,0.6,0.5,1.4,0.5,2.6v4.9h-1.2v-4.7c0-1.3-0.2-1.9-0.5-2.4c-0.5-0.7-1.3-1.2-2.3-1.2c-1.5,0-2.6,1-3.2,2.1
		c0.1,0.4,0.1,0.8,0.1,1.3v4.9h-1.2v-4.7c0-1.3-0.2-1.9-0.5-2.4c-0.5-0.7-1.3-1.2-2.3-1.2c-1.3,0-2.5,0.8-3.1,1.9v6.4h-1.2v-9.1h1.1
		L200.3,30L200.3,30z"/>
	<path class="st1" d="M218.1,24.6c0.6,0,1,0.5,1,1c0,0.6-0.5,1-1,1s-1-0.4-1-1S217.5,24.6,218.1,24.6z M217.5,28.8h1.2V38h-1.2V28.8
		z"/>
	<path class="st1" d="M221.7,36c0.8,0.7,1.8,1.1,2.8,1.1c1.2,0,2.1-0.6,2.1-1.6c0-2.4-5.3-1.1-5.3-4.2c0-1.7,1.6-2.7,3.1-2.7
		c1.3,0,2.3,0.4,3,0.9l-0.6,1c-0.8-0.5-1.4-0.7-2.3-0.7c-1,0-2,0.5-2,1.6c0,2,5.3,1,5.3,4.2c0,1.7-1.5,2.8-3.2,2.8
		c-1.5,0-2.8-0.6-3.6-1.3L221.7,36z"/>
	<path class="st1" d="M238.1,36.6c-0.9,1-2.2,1.6-3.6,1.6c-2.6,0-5-1.9-5-4.8c0-2.6,2-4.8,4.8-4.8c1.5,0,2.7,0.6,3.5,1.4l-0.7,0.8
		c-0.7-0.7-1.6-1.2-2.8-1.2c-1.9,0-3.6,1.6-3.6,3.7s1.6,3.7,3.8,3.7c1.1,0,2-0.4,2.8-1.3L238.1,36.6z"/>
	<path class="st1" d="M241.3,30c0.7-1,2-1.4,3.2-1.4c1.3,0,2.5,0.5,3.3,1.6c0.5,0.7,0.8,1.4,0.8,3v4.9h-1.2v-4.8
		c0-1.2-0.2-1.8-0.5-2.3c-0.5-0.8-1.4-1.2-2.4-1.2c-1.3,0-2.5,0.7-3.2,1.9v6.4h-1.2V23.6h1.2L241.3,30L241.3,30z"/>
	<path class="st1" d="M259.2,36.5c-0.7,0.9-2,1.7-3.8,1.7c-2.6,0-4.6-1.9-4.6-4.8c0-2.7,1.8-4.8,4.4-4.8c2.5,0,4.3,1.9,4.3,4.5
		c0,0.1,0,0.2,0,0.4H252c0.1,2,1.4,3.6,3.5,3.6c1.2,0,2.2-0.5,3-1.4L259.2,36.5z M252,32.4h6.3c-0.2-1.6-1.5-2.8-3.1-2.8
		C253.6,29.7,252.4,30.8,252,32.4z"/>
	<path class="st1" d="M180.8,52h-4.7v-1.2h5.9v6c-1.2,1.6-3.3,2.6-5.5,2.6c-4.2,0-7.3-3.1-7.3-7.3c0-4.1,3-7.3,7.1-7.3
		c2,0,3.9,0.8,5.1,2.2l-0.8,0.8c-1-1.1-2.5-1.8-4.3-1.8c-3.4,0-5.9,2.7-5.9,6.1s2.5,6.1,6,6.1c1.7,0,3.3-0.7,4.3-1.8L180.8,52
		L180.8,52z"/>
	<path class="st1" d="M192.4,57.8c-0.7,0.9-2,1.7-3.8,1.7c-2.6,0-4.6-1.9-4.6-4.8c0-2.7,1.8-4.8,4.4-4.8c2.5,0,4.3,1.9,4.3,4.5
		c0,0.1,0,0.2,0,0.4h-7.5c0.1,2,1.4,3.6,3.5,3.6c1.2,0,2.2-0.5,3-1.4L192.4,57.8z M185.3,53.7h6.3c-0.2-1.6-1.5-2.8-3.1-2.8
		C186.8,50.9,185.6,52.1,185.3,53.7z"/>
	<path class="st1" d="M196.3,51.3c0.7-0.9,1.8-1.5,3.1-1.5c1.5,0,2.8,0.8,3.5,2c0.6-0.9,1.8-2,3.6-2c1.5,0,2.8,0.8,3.5,1.9
		c0.3,0.6,0.5,1.4,0.5,2.6v4.9h-1.2v-4.7c0-1.3-0.2-1.9-0.5-2.4c-0.5-0.7-1.3-1.2-2.3-1.2c-1.5,0-2.6,1-3.2,2.1
		c0.1,0.4,0.1,0.8,0.1,1.3v4.9h-1.2v-4.7c0-1.3-0.2-1.9-0.5-2.4c-0.5-0.7-1.3-1.2-2.3-1.2c-1.3,0-2.5,0.8-3.1,1.9v6.4h-1.2V50h1.1
		L196.3,51.3L196.3,51.3z"/>
	<path class="st1" d="M221,57.8c-0.7,0.9-2,1.7-3.8,1.7c-2.6,0-4.6-1.9-4.6-4.8c0-2.7,1.8-4.8,4.4-4.8c2.5,0,4.3,1.9,4.3,4.5
		c0,0.1,0,0.2,0,0.4h-7.5c0.1,2,1.4,3.6,3.5,3.6c1.2,0,2.2-0.5,3-1.4L221,57.8z M213.9,53.7h6.3c-0.2-1.6-1.5-2.8-3.1-2.8
		C215.4,50.9,214.2,52.1,213.9,53.7z"/>
	<path class="st1" d="M224.3,45.8c0.6,0,1,0.5,1,1s-0.5,1-1,1s-1-0.4-1-1S223.7,45.8,224.3,45.8z M223.7,50h1.2v9.2h-1.2V50z"/>
	<path class="st1" d="M229.2,51.3c0.7-1,2-1.5,3.3-1.5s2.5,0.5,3.3,1.6c0.5,0.7,0.8,1.4,0.8,3v4.9h-1.2v-4.8c0-1.2-0.2-1.8-0.5-2.3
		c-0.5-0.8-1.4-1.2-2.4-1.2c-1.3,0-2.5,0.7-3.2,1.9v6.4h-1.2v-9.2h1.1L229.2,51.3L229.2,51.3z"/>
	<path class="st1" d="M239.3,57.3c0.8,0.7,1.8,1.1,2.8,1.1c1.2,0,2.1-0.6,2.1-1.6c0-2.4-5.3-1.1-5.3-4.2c0-1.7,1.6-2.7,3.1-2.7
		c1.3,0,2.3,0.4,3,0.9l-0.6,1c-0.8-0.5-1.4-0.7-2.3-0.7c-1,0-2,0.5-2,1.6c0,2,5.3,1,5.3,4.2c0,1.7-1.5,2.8-3.2,2.8
		c-1.5,0-2.8-0.6-3.6-1.3L239.3,57.3z"/>
	<path class="st1" d="M255.8,57.9c-0.9,1-2.2,1.6-3.6,1.6c-2.6,0-5-1.9-5-4.8c0-2.6,2-4.8,4.8-4.8c1.5,0,2.7,0.6,3.5,1.4l-0.7,0.8
		c-0.7-0.7-1.6-1.2-2.8-1.2c-1.9,0-3.6,1.6-3.6,3.7s1.6,3.7,3.8,3.7c1.1,0,2-0.4,2.8-1.3L255.8,57.9z"/>
	<path class="st1" d="M259,51.3c0.7-1,2-1.4,3.2-1.4c1.3,0,2.5,0.5,3.3,1.6c0.5,0.7,0.8,1.4,0.8,3v4.9h-1.2v-4.8
		c0-1.2-0.2-1.8-0.5-2.3c-0.5-0.8-1.4-1.2-2.4-1.2c-1.3,0-2.5,0.7-3.2,1.9v6.4h-1.2V44.9h1.2L259,51.3L259,51.3z"/>
	<path class="st1" d="M276.5,59.3v-1.4c-0.7,0.9-1.9,1.6-3.3,1.6c-0.9,0-1.8-0.2-2.8-0.9c-1.2-0.8-2-2.3-2-3.9
		c0-1.5,0.7-2.9,1.7-3.8c0.8-0.6,1.8-1,2.9-1c1.3,0,2.5,0.5,3.4,1.5v-1.3h1.1v9.2L276.5,59.3L276.5,59.3z M276.5,52.8
		c-0.4-0.7-1.6-1.9-3.3-1.9c-0.8,0-1.6,0.3-2.2,0.8c-0.8,0.7-1.3,1.7-1.3,2.9c0,1.3,0.6,2.4,1.5,3c0.6,0.4,1.3,0.7,2.1,0.7
		c1.4,0,2.6-0.8,3.3-2v-3.5H276.5z"/>
	<path class="st1" d="M285.8,45.9c-0.2-0.1-0.4-0.1-0.7-0.1c-0.7,0-1.4,0.3-1.8,0.9c-0.3,0.4-0.4,0.8-0.4,1.9v1.5h3.1v1.1h-3.1v8.1
		h-1.2v-8.1h-2.4v-1.1h2.4v-1.4c0-1.4,0.3-2.2,0.8-2.8c0.6-0.7,1.6-1.1,2.6-1.1c0.3,0,0.6,0,0.9,0.1L285.8,45.9z"/>
	<path class="st1" d="M293.9,51.1h-3.1v5.1c0,0.8,0.2,1.2,0.4,1.5c0.3,0.4,0.8,0.6,1.5,0.6c0.3,0,0.6,0,1-0.1l0.2,1.1
		c-0.3,0.1-0.8,0.2-1.2,0.2c-0.9,0-1.8-0.3-2.5-1.1c-0.4-0.5-0.6-1.2-0.6-2.3v-5H287V50h2.6v-2.5h1.2V50h3.1V51.1z"/>
</g>
<line class="st2" x1="150.4" y1="0" x2="150.4" y2="62.5"/>
<g>
	<path class="st1" d="M7.7,45.3C11.2,49.1,16.4,52,22,52c5.2,0,8.8-3.2,8.8-7.6c0-7.8-11.2-8.7-19.4-13.5C6.6,28.1,2.8,24,2.8,17.2
		c0-10.8,9.9-17,20-17c6.1,0,11.8,1.5,17.6,5.7l-6.1,8.6c-2.4-2.2-6.5-4-10.5-4c-4.4,0-9.3,1.9-9.3,6.6c0,9.8,27.9,6.7,27.9,27.2
		c0,10.7-9.6,18.2-20.5,18.2c-8.1,0-15.6-3.4-21.9-9.1L7.7,45.3z"/>
	<path class="st1" d="M52.4,1h11.7v60.5H52.4V1z"/>
	<path class="st1" d="M85.3,31.2C85.3,43,94.3,52,106,52c5.5,0,10-1.9,13.5-4.7v-13h-15.6V23.9h27.2v26.9
		c-5.4,6.8-14.4,11.6-25.4,11.6c-18.8,0-32.1-13.7-32.1-31.1S86.7,0.2,105.5,0.2c9,0,16.7,3.4,22.1,8.6l-7.5,8
		c-3.6-3.6-8.7-6.2-14.7-6.2C93.9,10.5,85.3,19.7,85.3,31.2z"/>
</g>
</svg>
